<svg viewBox="0 0 15 36" fill="none" xmlns="http://www.w3.org/2000/svg">
  <path fill-rule="evenodd" clip-rule="evenodd" d="M4 2.48V1.5A1.5 1.5 0 015.5 0h4A1.5 1.5 0 0111 1.5v.98c2.43.793 3.913 2.606 3.996 5.739L15 8.5v6c0 .523-.2 1-.53 1.356a1.5 1.5 0 01-.97 2.644 1.5 1.5 0 010 3 1.5 1.5 0 01.97 2.644c.33.357.53.833.53 1.356v8a2 2 0 01-2 2H2a2 2 0 01-2-2v-8c0-.523.2-1 .53-1.356A1.5 1.5 0 011.5 21.5a1.5 1.5 0 010-3 1.5 1.5 0 01-.97-2.644A1.993 1.993 0 010 14.5v-6c0-3.306 1.498-5.204 4-6.02zM2 15.5h11a1 1 0 001-1v-6c0-2.828-1.199-4.386-3.32-5.074-.275.35-.701.574-1.18.574h-4c-.479 0-.905-.224-1.18-.574C2.2 4.114 1 5.672 1 8.5v6a1 1 0 001 1zm0 9a1 1 0 00-1 1v8a1 1 0 001 1h11a1 1 0 001-1v-8a1 1 0 00-1-1H2z" />
</svg>