<svg viewBox="0 0 20 20" fill="none" xmlns="http://www.w3.org/2000/svg">
  <circle cx="10" cy="10" r="9.5" />
  <path d="M9.976 7.184c-.936 0-1.472.368-1.608 1.104H7.36c.056-.592.3-1.068.732-1.428.432-.36 1.036-.54 1.812-.54.784 0 1.4.192 1.848.576.456.384.684.852.684 1.404 0 .416-.104.764-.312 1.044-.208.272-.544.536-1.008.792a9.4 9.4 0 00-.504.3 1.176 1.176 0 00-.324.3c-.152.2-.228.488-.228.864v.468h-.936v-.54c0-.504.084-.888.252-1.152.168-.272.472-.528.912-.768.44-.24.736-.448.888-.624.152-.184.228-.428.228-.732s-.128-.556-.384-.756c-.248-.208-.596-.312-1.044-.312zm-.372 5.592a.7.7 0 01.72.696c0 .184-.068.34-.204.468a.723.723 0 01-.516.192.681.681 0 01-.504-.192.637.637 0 01-.192-.468c0-.192.064-.356.192-.492a.66.66 0 01.504-.204z" />
</svg>