<svg viewBox="0 0 20 31" fill="none" xmlns="http://www.w3.org/2000/svg">
  <path fill-rule="evenodd" clip-rule="evenodd" d="M7.907 14.628v3.87H4v2.58l3.907-.001v3.225h2.605v-3.225h3.907v-2.579h-3.907v-3.87H7.907z" />
  <path fill-rule="evenodd" clip-rule="evenodd" d="M5.829.744c0-.411.333-.744.744-.744H11.2c.411 0 .745.333.745.744v.968c1.508-.334 2.83-.47 3.969-.407 1.26.069 2.427.258 3.505.567V2.99c-1-.277-2.168-.416-3.505-.416-1.164 0-2.486.164-3.969.491v1.351c0 .41-.334.744-.745.744h-.785v1.29h3.503c.411 0 .744.333.744.744v1.48h.766c1.42 0 2.572 1.333 2.572 2.977v16.372C18 29.667 16.849 31 15.428 31H2.572C1.151 31 0 29.667 0 28.023V11.651c0-1.644 1.151-2.977 2.571-2.977h1.22v-1.48c0-.411.332-.744.744-.744h2.823V5.16h-.785a.744.744 0 01-.744-.744V.744zM10.946 1H6.83v3.16l1.528-.002v3.29l-3.566.001v2.225h-2.22l-.124.007C1.667 9.76 1 10.586 1 11.65v16.372l.005.166C1.075 29.23 1.78 30 2.571 30h12.857l.125-.006c.78-.08 1.447-.905 1.447-1.97V11.65l-.006-.166c-.068-1.039-.774-1.81-1.566-1.81l-1.765-.002V7.45H9.415v-3.29l1.53.001V1z" />
</svg>